<?xml version="1.0" encoding="UTF-8"?>
<svg viewBox="0 0 1000 500"
     xmlns="http://www.w3.org/2000/svg"
     fill="none"
     stroke="white"
     stroke-width="1.4"
     stroke-linecap="round"
     stroke-linejoin="round">

  <!-- North America -->
  <path d="M70 110 L120 80 L200 70 L260 95 L300 140 L260 170 L210 165 L160 150 L120 135 Z"/>

  <!-- South America -->
  <path d="M260 230 L300 280 L320 340 L300 400 L260 430 L230 380 L240 300 Z"/>

  <!-- Europe -->
  <path d="M430 90 L470 75 L520 85 L540 110 L500 125 L460 115 Z"/>

  <!-- Africa -->
  <path d="M470 145 L530 170 L560 240 L540 330 L480 370 L440 300 L450 210 Z"/>

  <!-- Asia -->
  <path d="M550 90 L650 65 L760 85 L840 135 L820 190 L740 185 L690 205 L630 175 Z"/>

  <!-- Australia -->
  <path d="M760 310 L820 325 L860 360 L820 390 L760 365 Z"/>

</svg>
